<?xml version="1.0" encoding="utf-8"?>
<!-- Generator: Adobe Illustrator 19.1.0, SVG Export Plug-In . SVG Version: 6.00 Build 0)  -->
<svg version="1.1" id="Livello_1" xmlns="http://www.w3.org/2000/svg" xmlns:xlink="http://www.w3.org/1999/xlink" x="0px" y="0px"
	 viewBox="-105 -4 88 88" style="enable-background:new -105 -4 88 88;" xml:space="preserve">
<style type="text/css">
	.st0{fill:#FFFFFF;}
</style>
<g id="Dribbble">
	<g>
		<path class="st0" d="M-61-3.2c-5.9,0-11.6,1.2-16.7,3.4c-0.2,0.1-0.4,0.1-0.5,0.2c-15.4,6.7-26.1,22-26.1,39.8
			c0,23.9,19.4,43.3,43.3,43.3c23.9,0,43.3-19.4,43.3-43.3C-17.7,16.2-37.1-3.2-61-3.2z M-23.1,40.1c0,0.3,0,0.6,0,0.9
			c-4.2-1.1-14.7-3.2-27.7-0.3c-1.1-2.6-2.4-5.3-3.8-8c-0.1-0.2-0.2-0.4-0.4-0.7c13.9-5.4,19.8-12.6,22.3-17.1
			C-26.7,21.6-23.1,30.4-23.1,40.1z M-36.8,10.9c-1.3,3-5.8,10.7-20.7,16.3C-64.2,15-69.4,7.6-72.3,3.9c3.6-1.1,7.4-1.7,11.3-1.7
			C-51.8,2.2-43.4,5.5-36.8,10.9z M-77.6,6c2.3,2.8,7.7,9.9,14.8,22.9c-16.9,5.1-30.7,4.5-35.5,4C-96,21.1-88.2,11.2-77.6,6z
			 M-98.9,40.1c0-0.6,0-1.2,0-1.7c1.6,0.2,4.2,0.3,7.5,0.3c7.4,0,18.4-0.9,31.3-4.9c0.2,0.5,0.5,0.9,0.7,1.4c1.2,2.4,2.3,4.7,3.3,7
			c-2.3,0.7-4.7,1.6-7.1,2.7c-15.5,7-22.7,17-25.3,21.4C-94.9,59.4-98.9,50.2-98.9,40.1z M-84.4,69.9c1.4-2.6,7.7-13.1,23.4-20.2
			c2.4-1.1,4.7-1.9,7-2.6c5.1,13.1,6.9,23.8,7.5,28C-51,77-55.9,78-61,78C-69.8,78-77.9,75-84.4,69.9z M-41.4,72.5
			c-0.8-5.2-2.7-15-7.3-26.7c12.6-2.5,22.5,0,25,0.7C-25.5,57.5-32.2,66.9-41.4,72.5z"/>
	</g>
</g>
</svg>
