<?xml version="1.0" encoding="utf-8"?>
<!-- Generator: Adobe Illustrator 19.1.0, SVG Export Plug-In . SVG Version: 6.00 Build 0)  -->
<svg version="1.1" id="Layer_1" xmlns="http://www.w3.org/2000/svg" xmlns:xlink="http://www.w3.org/1999/xlink" x="0px" y="0px"
	 viewBox="-121 12.3 56.7 56.7" style="enable-background:new -121 12.3 56.7 56.7;" xml:space="preserve">
<style type="text/css">
	.st0{fill:#FFFFFF;}
</style>
<path class="st0" d="M-91.3,12.3c-15.5,0-23.3,11.1-23.3,20.3c0,5.6,2.1,10.6,6.7,12.4c0.7,0.3,1.4,0,1.6-0.8c0.2-0.6,0.5-2,0.7-2.6
	c0.2-0.8,0.1-1.1-0.5-1.8c-1.3-1.5-2.2-3.5-2.2-6.4c0-8.2,6.2-15.6,16-15.6c8.7,0,13.5,5.3,13.5,12.5c0,9.4-4.2,17.3-10.3,17.3
	c-3.4,0-6-2.8-5.1-6.3c1-4.1,2.9-8.6,2.9-11.6c0-2.7-1.4-4.9-4.4-4.9c-3.5,0-6.3,3.6-6.3,8.4c0,3.1,1,5.2,1,5.2s-3.6,15.1-4.2,17.7
	c-1.2,5.3-0.2,11.7-0.1,12.4c0.1,0.4,0.5,0.5,0.8,0.2c0.3-0.4,4.5-5.5,5.9-10.7c0.4-1.4,2.3-8.9,2.3-8.9c1.1,2.2,4.4,4.1,8,4.1
	c10.5,0,17.6-9.5,17.6-22.3C-70.7,21.3-78.9,12.3-91.3,12.3z"/>
</svg>
