<?xml version="1.0" encoding="utf-8"?>
<!-- Generator: Adobe Illustrator 19.1.0, SVG Export Plug-In . SVG Version: 6.00 Build 0)  -->
<svg version="1.1" id="Layer_1" xmlns="http://www.w3.org/2000/svg" xmlns:xlink="http://www.w3.org/1999/xlink" x="0px" y="0px"
	 viewBox="-121 12.3 56.7 56.7" style="enable-background:new -121 12.3 56.7 56.7;" xml:space="preserve">
<style type="text/css">
	.st0{fill:#FFFFFF;}
</style>
<path class="st0" d="M-64.3,23.1c-2.1,0.9-4.3,1.6-6.7,1.8c2.4-1.4,4.2-3.7,5.1-6.4c-2.2,1.3-4.7,2.3-7.4,2.8
	c-2.1-2.3-5.1-3.7-8.5-3.7c-6.4,0-11.6,5.2-11.6,11.6c0,0.9,0.1,1.8,0.3,2.7c-9.7-0.5-18.2-5.1-24-12.2c-1,1.7-1.6,3.7-1.6,5.8
	c0,4,2.1,7.6,5.2,9.7c-1.9-0.1-3.7-0.6-5.3-1.5c0,0,0,0.1,0,0.1c0,5.6,4,10.3,9.3,11.4c-1,0.3-2,0.4-3.1,0.4c-0.8,0-1.5-0.1-2.2-0.2
	c1.5,4.6,5.8,8,10.9,8.1c-4,3.1-9,5-14.4,5c-0.9,0-1.9-0.1-2.8-0.2c5.1,3.3,11.3,5.2,17.8,5.2c21.4,0,33.1-17.7,33.1-33.1
	c0-0.5,0-1,0-1.5C-67.8,27.5-65.9,25.4-64.3,23.1z"/>
</svg>
